<svg aria-hidden="true" style="position: absolute; width: 0; height: 0; overflow: hidden;" version="1.1" xmlns="http://www.w3.org/2000/svg" xmlns:xlink="http://www.w3.org/1999/xlink">
<defs>

    <symbol id="ac" viewBox="0 0 38 32" fill="#101828" stroke="#101828">
        <path d="M18.629 0.384c-1.729 0-3.405 0.615-4.742 1.739s-2.254 2.689-2.594 4.428l-0.134 0.69c-0.036 0.154-0.040 0.314-0.014 0.471s0.083 0.306 0.166 0.439c0.084 0.133 0.192 0.248 0.32 0.338s0.272 0.151 0.423 0.183c0.152 0.031 0.308 0.031 0.459-0.002s0.295-0.095 0.422-0.185c0.127-0.090 0.235-0.206 0.318-0.34s0.138-0.284 0.163-0.44l0.136-0.688c0.255-1.289 0.968-2.436 2.001-3.217s2.31-1.142 3.587-1.012c1.277 0.13 2.461 0.741 3.323 1.716s1.341 2.242 1.345 3.558c0 1.41-0.546 2.763-1.518 3.76s-2.291 1.558-3.666 1.559h-16.704c-0.306 0-0.599 0.125-0.815 0.346s-0.337 0.522-0.337 0.835c0 0.313 0.121 0.614 0.337 0.835s0.509 0.346 0.815 0.346h16.704c1.954-0.049 3.811-0.88 5.177-2.314s2.13-3.359 2.13-5.364c0-2.005-0.763-3.93-2.127-5.365s-3.221-2.267-5.175-2.317zM31.872 11.018c-1.528 0-2.993 0.622-4.073 1.73s-1.687 2.611-1.687 4.177c0 0.313 0.121 0.614 0.337 0.835s0.509 0.346 0.815 0.346c0.306 0 0.599-0.125 0.815-0.346s0.337-0.522 0.337-0.835c0-0.701 0.203-1.386 0.582-1.969s0.92-1.037 1.551-1.306c0.631-0.268 1.326-0.338 1.997-0.202s1.286 0.474 1.77 0.97c0.483 0.496 0.812 1.127 0.946 1.815s0.065 1.4-0.197 2.048c-0.262 0.648-0.705 1.201-1.273 1.591s-1.236 0.597-1.92 0.597h-29.952c-0.306 0-0.599 0.125-0.815 0.346s-0.337 0.522-0.337 0.835c0 0.313 0.121 0.614 0.337 0.835s0.509 0.346 0.815 0.346h22.464c0.764 0.002 1.496 0.314 2.035 0.869s0.841 1.307 0.839 2.090c-0.002 0.783-0.306 1.534-0.848 2.087s-1.274 0.863-2.038 0.861c-0.688 0-1.354-0.249-1.88-0.704s-0.878-1.086-0.993-1.782l-0.012-0.071c-0.021-0.157-0.072-0.308-0.151-0.444s-0.183-0.255-0.307-0.348c-0.124-0.094-0.265-0.161-0.415-0.198s-0.306-0.043-0.458-0.017c-0.152 0.026-0.298 0.083-0.428 0.168s-0.243 0.195-0.33 0.325c-0.088 0.13-0.149 0.277-0.181 0.432s-0.032 0.315-0.002 0.47l0.012 0.071c0.205 1.247 0.834 2.38 1.776 3.197s2.136 1.265 3.369 1.265c1.376 0.001 2.696-0.559 3.67-1.556s1.523-2.35 1.525-3.761c0-1.094-0.323-2.11-0.873-2.954h3.177c1.528 0 2.993-0.622 4.073-1.73s1.687-2.61 1.687-4.177-0.607-3.069-1.687-4.177c-1.080-1.108-2.545-1.73-4.073-1.73z"></path>
    </symbol>

    <symbol id="automatic" viewBox="0 0 32 32" fill="none" stroke="#101828" >
        <path stroke-linejoin="round" stroke-linecap="round" stroke-miterlimit="4" stroke-width="2.1333" d="M24.494 14.42h2.37c0.629 0 1.232-0.25 1.676-0.694s0.694-1.047 0.694-1.676c0-0.629-0.25-1.232-0.694-1.676s-1.047-0.694-1.676-0.694h-2.37v7.901M24.494 23.901v6.321h1.58c0.838 0 1.642-0.333 2.235-0.926s0.926-1.397 0.926-2.235c0-0.838-0.333-1.642-0.926-2.235s-1.397-0.926-2.235-0.926h-1.58zM2.37 4.938c0 0.838 0.333 1.642 0.926 2.235s1.397 0.926 2.235 0.926c0.838 0 1.642-0.333 2.235-0.926s0.926-1.397 0.926-2.235c0-0.838-0.333-1.642-0.926-2.235s-1.397-0.926-2.235-0.926c-0.838 0-1.642 0.333-2.235 0.926s-0.926 1.397-0.926 2.235z"></path>
        <path stroke-linejoin="round" stroke-linecap="round" stroke-miterlimit="4" stroke-width="2.1333" d="M5.531 8.099v4.741c0 0.419 0.166 0.821 0.463 1.117s0.698 0.463 1.117 0.463h4.741M11.852 14.42v11.062c0 0.419 0.166 0.821 0.463 1.117s0.698 0.463 1.117 0.463h4.741M11.852 14.42h6.321"></path>
    </symbol>

    <symbol id="kitchen" viewBox="0 0 32 32" fill="none" stroke="#101828" >
        <path stroke-linejoin="round" stroke-linecap="round" stroke-miterlimit="4" stroke-width="1.7455" d="M25.051 19.879v-15.515c-6.227 5.94-6.494 10.756-6.465 15.515h6.465zM25.051 19.879v7.758h-1.293v-3.879M10.828 5.657v21.98M6.95 5.657v3.879c0 1.029 0.409 2.015 1.136 2.743s1.714 1.136 2.743 1.136c1.029 0 2.015-0.409 2.743-1.136s1.136-1.714 1.136-2.743v-3.879"></path>
    </symbol>

    <symbol id="shower" viewBox="0 0 31 32" fill="none" stroke="#101828" >
        <path stroke-linejoin="round" stroke-linecap="round" stroke-miterlimit="4" stroke-width="1.9394" d="M5.172 5.657l3.232 3.232M17.454 8.889c-1.204-1.18-2.826-1.837-4.512-1.829s-3.301 0.682-4.493 1.874c-1.192 1.192-1.866 2.807-1.874 4.493s0.649 3.308 1.829 4.512M19.394 6.949l-12.929 12.929M18.101 22.465v0.013M12.929 21.172v0.013M16.808 17.293v0.013M20.687 13.414v0.013M14.222 26.343v0.013M21.98 18.586v0.013M25.859 14.707v0.013"></path>
    </symbol>

    <symbol id="tv" viewBox="0 0 32 32" fill="none" stroke="#101828" >
        <path stroke-linejoin="round" stroke-linecap="round" stroke-miterlimit="4" stroke-width="1.8581" d="M24.258 26.323h-16.516c-2.287 0-4.129-1.842-4.129-4.129v-10.323c0-2.287 1.842-4.129 4.129-4.129h16.516c2.287 0 4.129 1.842 4.129 4.129v10.323c0 2.287-1.842 4.129-4.129 4.129z"></path>
        <path stroke-linejoin="round" stroke-linecap="round" stroke-miterlimit="4" stroke-width="1.8581" d="M11.871 30.452h8.258"></path>
        <path stroke-linejoin="round" stroke-linecap="round" stroke-miterlimit="4" stroke-width="1.8581" d="M16 7.742l6.194-6.194"></path>
        <path stroke-linejoin="round" stroke-linecap="round" stroke-miterlimit="4" stroke-width="1.8581" d="M16 7.742l-6.194-6.194"></path>
    </symbol>

    <symbol id="alcove" viewBox="0 0 44 32" stroke="#101828">
        <path d="M2.518 2.289h11.981c0.101 0 0.196-0.039 0.268-0.109l1.151-1.123c0.335-0.326 0.779-0.506 1.252-0.506h18.168c0.846 0 1.631 0.41 2.101 1.097l2.177 3.186c0.309 0.452 0.337 1.031 0.074 1.51s-0.773 0.777-1.33 0.777h-9.364v0.923h4.796c1.271 0 2.415 0.737 2.914 1.878l2.808 6.42 2.46 0.96c1.314 0.513 2.162 1.735 2.162 3.116v5.946c0 0.887-0.74 1.608-1.649 1.608h-2.862c-0.333 1.968-2.089 3.475-4.2 3.475s-3.867-1.507-4.2-3.475h-15.645c-0.333 1.968-2.090 3.475-4.2 3.475s-3.867-1.507-4.2-3.475h-5.717c-0.808 0-1.466-0.641-1.466-1.43v-21.797c0-1.355 1.129-2.457 2.518-2.457zM35.427 30.091c1.581 0 2.867-1.254 2.867-2.796s-1.286-2.796-2.867-2.796c-1.581 0-2.866 1.254-2.866 2.796s1.286 2.796 2.866 2.796zM28.998 26.616h2.228c0.006-0.034 0.013-0.067 0.020-0.101 0.004-0.023 0.008-0.046 0.013-0.068 0.011-0.053 0.024-0.106 0.037-0.159 0.003-0.011 0.005-0.022 0.008-0.033 0.017-0.063 0.035-0.126 0.055-0.188 0.006-0.018 0.012-0.036 0.018-0.054 0.014-0.043 0.029-0.087 0.045-0.13 0.009-0.023 0.018-0.046 0.027-0.068 0.014-0.038 0.029-0.075 0.045-0.112 0.010-0.024 0.021-0.048 0.032-0.072 0.016-0.035 0.031-0.070 0.048-0.104 0.012-0.024 0.024-0.048 0.037-0.073 0.017-0.033 0.034-0.067 0.052-0.099 0.013-0.024 0.026-0.048 0.040-0.072 0.018-0.033 0.038-0.065 0.057-0.097 0.014-0.023 0.028-0.046 0.042-0.068 0.021-0.033 0.042-0.065 0.064-0.097 0.014-0.021 0.028-0.042 0.043-0.063 0.024-0.034 0.049-0.068 0.075-0.102 0.013-0.018 0.026-0.036 0.039-0.053 0.035-0.045 0.070-0.087 0.105-0.13 0.005-0.006 0.010-0.013 0.016-0.020 0.041-0.049 0.084-0.097 0.127-0.143 0.013-0.015 0.027-0.028 0.041-0.042 0.031-0.032 0.061-0.064 0.093-0.096 0.018-0.017 0.036-0.034 0.054-0.051 0.028-0.027 0.057-0.054 0.087-0.081 0.019-0.017 0.039-0.035 0.060-0.052 0.029-0.025 0.058-0.049 0.087-0.074l0.064-0.050c0.029-0.023 0.059-0.046 0.090-0.069 0.022-0.016 0.044-0.033 0.066-0.048 0.031-0.022 0.062-0.043 0.093-0.065 0.022-0.015 0.045-0.030 0.067-0.044 0.033-0.022 0.067-0.042 0.1-0.063 0.022-0.013 0.043-0.027 0.066-0.040 0.037-0.022 0.075-0.042 0.112-0.063 0.019-0.011 0.038-0.022 0.057-0.032 0.054-0.028 0.108-0.055 0.163-0.082 0.004-0.002 0.008-0.004 0.013-0.006 0.059-0.028 0.119-0.054 0.179-0.079 0.020-0.008 0.039-0.015 0.059-0.023 0.041-0.016 0.083-0.033 0.125-0.048 0.024-0.009 0.048-0.016 0.072-0.025 0.038-0.013 0.077-0.026 0.116-0.038 0.026-0.008 0.052-0.016 0.079-0.023 0.038-0.011 0.076-0.022 0.114-0.032 0.027-0.007 0.054-0.014 0.082-0.021 0.038-0.009 0.076-0.017 0.114-0.026 0.028-0.006 0.056-0.012 0.084-0.017 0.039-0.007 0.078-0.014 0.118-0.020 0.028-0.005 0.055-0.009 0.083-0.013 0.041-0.006 0.082-0.011 0.124-0.016 0.026-0.003 0.053-0.006 0.080-0.009 0.046-0.004 0.092-0.008 0.138-0.010 0.023-0.002 0.045-0.004 0.068-0.004 0.070-0.004 0.139-0.005 0.209-0.005s0.139 0.002 0.209 0.005c0.023 0.001 0.045 0.003 0.068 0.004 0.046 0.003 0.092 0.006 0.138 0.010 0.027 0.002 0.053 0.006 0.080 0.009 0.042 0.005 0.083 0.010 0.124 0.016 0.028 0.004 0.056 0.008 0.084 0.013 0.039 0.006 0.078 0.013 0.117 0.020 0.028 0.005 0.056 0.011 0.084 0.017 0.038 0.008 0.076 0.016 0.114 0.026 0.028 0.007 0.055 0.014 0.082 0.021 0.038 0.010 0.076 0.021 0.114 0.032 0.027 0.008 0.053 0.015 0.079 0.023 0.039 0.012 0.077 0.025 0.116 0.038 0.024 0.009 0.048 0.016 0.072 0.025 0.042 0.016 0.084 0.032 0.125 0.048 0.019 0.008 0.039 0.015 0.059 0.023 0.060 0.025 0.12 0.052 0.179 0.079 0.005 0.002 0.008 0.004 0.013 0.006 0.055 0.026 0.109 0.053 0.163 0.082 0.019 0.010 0.038 0.021 0.057 0.032 0.038 0.021 0.076 0.041 0.112 0.063 0.022 0.013 0.044 0.027 0.066 0.040 0.033 0.021 0.067 0.041 0.1 0.063 0.022 0.015 0.044 0.030 0.067 0.044 0.032 0.022 0.063 0.043 0.094 0.065 0.022 0.016 0.044 0.032 0.066 0.048 0.030 0.023 0.060 0.046 0.090 0.069l0.063 0.050c0.029 0.024 0.058 0.049 0.087 0.074 0.020 0.017 0.040 0.035 0.060 0.052 0.029 0.027 0.058 0.054 0.087 0.081 0.018 0.017 0.036 0.034 0.054 0.051 0.032 0.031 0.062 0.064 0.093 0.096 0.014 0.014 0.028 0.028 0.041 0.042 0.043 0.047 0.086 0.094 0.127 0.143 0.006 0.006 0.010 0.013 0.016 0.020 0.036 0.043 0.071 0.086 0.105 0.13 0.013 0.017 0.026 0.035 0.039 0.053 0.026 0.034 0.051 0.067 0.075 0.102 0.014 0.021 0.028 0.042 0.043 0.063 0.022 0.033 0.043 0.065 0.064 0.097 0.014 0.023 0.028 0.046 0.042 0.068 0.020 0.032 0.039 0.065 0.057 0.097 0.013 0.024 0.027 0.048 0.039 0.072 0.018 0.033 0.036 0.066 0.052 0.099 0.013 0.024 0.025 0.048 0.037 0.073 0.017 0.035 0.032 0.069 0.048 0.104 0.011 0.024 0.022 0.048 0.032 0.072 0.016 0.037 0.031 0.074 0.045 0.112 0.009 0.023 0.018 0.046 0.027 0.068 0.016 0.043 0.031 0.086 0.045 0.13 0.006 0.018 0.013 0.036 0.018 0.054 0.019 0.062 0.038 0.124 0.054 0.188 0.003 0.011 0.006 0.022 0.008 0.033 0.013 0.053 0.026 0.105 0.037 0.159 0.005 0.023 0.009 0.046 0.013 0.068 0.007 0.034 0.014 0.067 0.019 0.101h2.861c0.142 0 0.257-0.112 0.257-0.251v-2.844h-1.085v-1.358h1.085v-1.744c0-0.822-0.505-1.55-1.287-1.855l-2.604-1.016h-9.857v9.068zM28.998 16.19h8.938l-2.508-5.735c-0.28-0.64-0.921-1.053-1.634-1.053h-4.796v6.787zM11.382 30.091c1.581 0 2.866-1.254 2.866-2.796s-1.286-2.796-2.866-2.796c-0.050 0-0.099 0.001-0.148 0.004-1.317 0.065-2.402 1.002-2.661 2.23-0.009 0.046-0.018 0.092-0.026 0.138-0.014 0.092-0.024 0.186-0.029 0.281-0.003 0.048-0.004 0.096-0.004 0.144 0 1.542 1.286 2.796 2.867 2.796zM1.391 22.163h1.085v1.358h-1.085v3.023c0 0.040 0.033 0.072 0.074 0.072h5.716c0.006-0.034 0.013-0.067 0.019-0.1 0.004-0.023 0.008-0.047 0.013-0.070 0.011-0.052 0.023-0.104 0.037-0.155 0.003-0.012 0.006-0.024 0.009-0.036 0.017-0.063 0.035-0.125 0.055-0.187 0.006-0.019 0.013-0.038 0.019-0.056 0.014-0.043 0.029-0.086 0.045-0.128 0.009-0.024 0.018-0.047 0.027-0.070 0.014-0.037 0.029-0.074 0.045-0.11 0.011-0.025 0.022-0.049 0.033-0.074 0.016-0.034 0.031-0.069 0.048-0.103 0.012-0.025 0.024-0.049 0.037-0.074 0.017-0.033 0.034-0.066 0.052-0.099 0.013-0.024 0.027-0.048 0.040-0.072 0.019-0.033 0.038-0.065 0.057-0.097 0.014-0.023 0.028-0.046 0.042-0.069 0.021-0.033 0.042-0.065 0.063-0.096 0.014-0.022 0.028-0.043 0.043-0.064 0.024-0.034 0.049-0.067 0.073-0.1 0.013-0.018 0.027-0.037 0.041-0.055 0.033-0.043 0.067-0.085 0.102-0.127 0.006-0.008 0.012-0.015 0.018-0.022 0.042-0.049 0.084-0.097 0.127-0.143 0.014-0.015 0.028-0.029 0.042-0.043 0.031-0.032 0.061-0.064 0.092-0.094 0.018-0.017 0.036-0.034 0.055-0.052 0.028-0.027 0.057-0.054 0.086-0.080 0.020-0.017 0.040-0.035 0.060-0.053 0.028-0.024 0.057-0.049 0.087-0.073 0.021-0.017 0.042-0.035 0.064-0.052 0.029-0.023 0.059-0.046 0.089-0.068 0.022-0.016 0.044-0.033 0.066-0.048 0.031-0.022 0.062-0.043 0.093-0.065 0.023-0.015 0.045-0.030 0.067-0.045 0.033-0.022 0.066-0.042 0.1-0.062 0.022-0.014 0.044-0.027 0.066-0.040 0.037-0.022 0.074-0.042 0.112-0.063 0.020-0.011 0.038-0.022 0.058-0.032 0.053-0.028 0.106-0.055 0.161-0.080 0.004-0.002 0.009-0.005 0.014-0.007 0.059-0.028 0.119-0.054 0.179-0.079 0.019-0.008 0.040-0.015 0.059-0.023 0.042-0.016 0.083-0.033 0.125-0.048 0.024-0.009 0.048-0.016 0.073-0.025 0.038-0.013 0.076-0.026 0.115-0.038 0.026-0.008 0.053-0.016 0.079-0.023 0.038-0.011 0.076-0.022 0.114-0.032 0.027-0.007 0.055-0.014 0.082-0.021 0.038-0.009 0.076-0.017 0.114-0.026 0.028-0.006 0.056-0.012 0.084-0.017 0.039-0.007 0.078-0.014 0.117-0.020 0.028-0.005 0.055-0.009 0.084-0.013 0.041-0.006 0.082-0.011 0.124-0.016 0.026-0.003 0.053-0.006 0.080-0.009 0.046-0.004 0.092-0.008 0.138-0.010 0.023-0.002 0.045-0.004 0.068-0.004 0.070-0.004 0.139-0.005 0.209-0.005s0.139 0.002 0.209 0.005c0.023 0.001 0.045 0.003 0.068 0.004 0.046 0.003 0.092 0.006 0.138 0.010 0.027 0.002 0.054 0.006 0.080 0.009 0.042 0.005 0.083 0.010 0.124 0.016 0.028 0.004 0.056 0.008 0.083 0.013 0.040 0.006 0.078 0.013 0.118 0.020 0.028 0.005 0.056 0.011 0.084 0.017 0.038 0.008 0.076 0.016 0.114 0.026 0.028 0.007 0.055 0.014 0.082 0.021 0.038 0.010 0.076 0.021 0.114 0.032 0.026 0.008 0.053 0.015 0.079 0.023 0.039 0.012 0.077 0.025 0.115 0.038 0.024 0.009 0.049 0.016 0.073 0.025 0.042 0.016 0.084 0.032 0.125 0.048 0.019 0.008 0.040 0.015 0.059 0.023 0.060 0.025 0.12 0.052 0.179 0.079 0.005 0.002 0.009 0.004 0.014 0.007 0.055 0.026 0.108 0.052 0.161 0.080 0.020 0.010 0.039 0.021 0.058 0.032 0.037 0.021 0.075 0.041 0.112 0.063 0.022 0.013 0.044 0.027 0.066 0.040 0.033 0.020 0.067 0.041 0.1 0.062 0.022 0.015 0.045 0.030 0.067 0.045 0.031 0.021 0.062 0.042 0.093 0.065 0.022 0.016 0.045 0.032 0.066 0.048 0.030 0.023 0.060 0.046 0.089 0.068 0.022 0.017 0.043 0.034 0.064 0.052 0.030 0.024 0.058 0.048 0.087 0.073 0.020 0.017 0.041 0.035 0.060 0.052 0.029 0.027 0.058 0.054 0.087 0.081 0.018 0.017 0.036 0.034 0.054 0.051 0.031 0.031 0.062 0.063 0.093 0.095 0.013 0.014 0.028 0.028 0.041 0.043 0.043 0.047 0.086 0.094 0.127 0.143 0.006 0.007 0.011 0.014 0.017 0.021 0.035 0.042 0.070 0.085 0.104 0.129 0.014 0.017 0.027 0.035 0.040 0.053 0.025 0.034 0.050 0.067 0.074 0.102 0.014 0.021 0.028 0.042 0.043 0.064 0.022 0.032 0.043 0.064 0.063 0.097 0.014 0.023 0.028 0.046 0.042 0.068 0.020 0.032 0.039 0.065 0.057 0.097 0.013 0.024 0.027 0.048 0.040 0.072 0.018 0.033 0.036 0.066 0.053 0.099 0.012 0.024 0.024 0.048 0.036 0.073 0.017 0.035 0.032 0.069 0.048 0.104 0.011 0.024 0.022 0.048 0.032 0.072 0.016 0.037 0.031 0.074 0.046 0.112 0.009 0.023 0.018 0.046 0.027 0.068 0.016 0.043 0.031 0.087 0.045 0.131 0.006 0.018 0.013 0.035 0.018 0.053 0.020 0.062 0.038 0.125 0.055 0.188 0.002 0.010 0.004 0.020 0.007 0.030 0.014 0.054 0.027 0.107 0.038 0.162 0.005 0.022 0.009 0.044 0.013 0.066 0.007 0.034 0.014 0.068 0.020 0.103h12.024v-20.172c0-0.375 0.312-0.679 0.696-0.679h10.059c0.017 0 0.070 0 0.103-0.060s0.004-0.103-0.006-0.116l-2.177-3.186c-0.211-0.308-0.563-0.492-0.943-0.492h-18.168c-0.101 0-0.197 0.039-0.268 0.109l-1.151 1.123c-0.334 0.326-0.779 0.506-1.252 0.506h-11.981c-0.621 0-1.127 0.493-1.127 1.099v17.417z"></path>
        <path d="M19.422 7.501h4.401c0.889 0 1.612 0.705 1.612 1.573v14.527c0 0.375-0.312 0.679-0.696 0.679h-6.234c-0.384 0-0.696-0.304-0.696-0.679v-14.527c-0.001-0.868 0.722-1.573 1.612-1.573zM19.201 22.922h4.842v-7.982h-4.842v7.982zM19.201 13.583h4.842v-4.508c0-0.119-0.099-0.216-0.221-0.216h-4.401c-0.122 0-0.221 0.097-0.221 0.216v4.508h0.001zM5.345 7.501h8.51c0.983 0 1.784 0.781 1.784 1.74v3.959c0 0.959-0.8 1.74-1.784 1.74h-8.511c-0.984 0-1.784-0.781-1.784-1.74v-3.959c0.001-0.959 0.801-1.74 1.784-1.74zM4.952 13.2c0 0.211 0.176 0.383 0.392 0.383h8.51c0.216 0 0.392-0.172 0.392-0.383v-3.959c0-0.211-0.176-0.383-0.392-0.383h-8.511c-0.216 0-0.392 0.172-0.392 0.383v3.959h0.001z"></path>
    </symbol>

    <symbol id="fully-integrated" viewBox="0 0 44 32" stroke="#101828">
        <path d="M2.518 2.289h11.981c0.101 0 0.196-0.039 0.268-0.109l1.151-1.123c0.335-0.326 0.779-0.506 1.252-0.506h18.168c0.846 0 1.631 0.41 2.101 1.097l2.177 3.186c0.309 0.452 0.337 1.031 0.074 1.51s-0.773 0.777-1.33 0.777h-9.364v0.923h4.796c1.271 0 2.415 0.737 2.914 1.878l2.808 6.42 2.46 0.96c1.314 0.513 2.162 1.735 2.162 3.116v5.946c0 0.887-0.74 1.608-1.649 1.608h-2.862c-0.333 1.968-2.089 3.475-4.2 3.475s-3.867-1.507-4.2-3.475h-15.645c-0.333 1.968-2.090 3.475-4.2 3.475s-3.867-1.507-4.2-3.475h-5.717c-0.808 0-1.466-0.641-1.466-1.43v-21.797c0-1.355 1.129-2.457 2.518-2.457zM35.427 30.091c1.581 0 2.867-1.254 2.867-2.796s-1.286-2.796-2.867-2.796c-1.581 0-2.866 1.254-2.866 2.796s1.286 2.796 2.866 2.796zM28.998 26.616h2.228c0.006-0.034 0.013-0.067 0.020-0.101 0.004-0.023 0.008-0.046 0.013-0.068 0.011-0.053 0.024-0.106 0.037-0.159 0.003-0.011 0.005-0.022 0.008-0.033 0.017-0.063 0.035-0.126 0.055-0.188 0.006-0.018 0.012-0.036 0.018-0.054 0.014-0.043 0.029-0.087 0.045-0.13 0.009-0.023 0.018-0.046 0.027-0.068 0.014-0.038 0.029-0.075 0.045-0.112 0.010-0.024 0.021-0.048 0.032-0.072 0.016-0.035 0.031-0.070 0.048-0.104 0.012-0.024 0.024-0.048 0.037-0.073 0.017-0.033 0.034-0.067 0.052-0.099 0.013-0.024 0.026-0.048 0.040-0.072 0.018-0.033 0.038-0.065 0.057-0.097 0.014-0.023 0.028-0.046 0.042-0.068 0.021-0.033 0.042-0.065 0.064-0.097 0.014-0.021 0.028-0.042 0.043-0.063 0.024-0.034 0.049-0.068 0.075-0.102 0.013-0.018 0.026-0.036 0.039-0.053 0.035-0.045 0.070-0.087 0.105-0.13 0.005-0.006 0.010-0.013 0.016-0.020 0.041-0.049 0.084-0.097 0.127-0.143 0.013-0.015 0.027-0.028 0.041-0.042 0.031-0.032 0.061-0.064 0.093-0.096 0.018-0.017 0.036-0.034 0.054-0.051 0.028-0.027 0.057-0.054 0.087-0.081 0.019-0.017 0.039-0.035 0.060-0.052 0.029-0.025 0.058-0.049 0.087-0.074l0.064-0.050c0.029-0.023 0.059-0.046 0.090-0.069 0.022-0.016 0.044-0.033 0.066-0.048 0.031-0.022 0.062-0.043 0.093-0.065 0.022-0.015 0.045-0.030 0.067-0.044 0.033-0.022 0.067-0.042 0.1-0.063 0.022-0.013 0.043-0.027 0.066-0.040 0.037-0.022 0.075-0.042 0.112-0.063 0.019-0.011 0.038-0.022 0.057-0.032 0.054-0.028 0.108-0.055 0.163-0.082 0.004-0.002 0.008-0.004 0.013-0.006 0.059-0.028 0.119-0.054 0.179-0.079 0.020-0.008 0.039-0.015 0.059-0.023 0.041-0.016 0.083-0.033 0.125-0.048 0.024-0.009 0.048-0.016 0.072-0.025 0.038-0.013 0.077-0.026 0.116-0.038 0.026-0.008 0.052-0.016 0.079-0.023 0.038-0.011 0.076-0.022 0.114-0.032 0.027-0.007 0.054-0.014 0.082-0.021 0.038-0.009 0.076-0.017 0.114-0.026 0.028-0.006 0.056-0.012 0.084-0.017 0.039-0.007 0.078-0.014 0.118-0.020 0.028-0.005 0.055-0.009 0.083-0.013 0.041-0.006 0.082-0.011 0.124-0.016 0.026-0.003 0.053-0.006 0.080-0.009 0.046-0.004 0.092-0.008 0.138-0.010 0.023-0.002 0.045-0.004 0.068-0.004 0.070-0.004 0.139-0.005 0.209-0.005s0.139 0.002 0.209 0.005c0.023 0.001 0.045 0.003 0.068 0.004 0.046 0.003 0.092 0.006 0.138 0.010 0.027 0.002 0.053 0.006 0.080 0.009 0.042 0.005 0.083 0.010 0.124 0.016 0.028 0.004 0.056 0.008 0.084 0.013 0.039 0.006 0.078 0.013 0.117 0.020 0.028 0.005 0.056 0.011 0.084 0.017 0.038 0.008 0.076 0.016 0.114 0.026 0.028 0.007 0.055 0.014 0.082 0.021 0.038 0.010 0.076 0.021 0.114 0.032 0.027 0.008 0.053 0.015 0.079 0.023 0.039 0.012 0.077 0.025 0.116 0.038 0.024 0.009 0.048 0.016 0.072 0.025 0.042 0.016 0.084 0.032 0.125 0.048 0.019 0.008 0.039 0.015 0.059 0.023 0.060 0.025 0.12 0.052 0.179 0.079 0.005 0.002 0.008 0.004 0.013 0.006 0.055 0.026 0.109 0.053 0.163 0.082 0.019 0.010 0.038 0.021 0.057 0.032 0.038 0.021 0.076 0.041 0.112 0.063 0.022 0.013 0.044 0.027 0.066 0.040 0.033 0.021 0.067 0.041 0.1 0.063 0.022 0.015 0.044 0.030 0.067 0.044 0.032 0.022 0.063 0.043 0.094 0.065 0.022 0.016 0.044 0.032 0.066 0.048 0.030 0.023 0.060 0.046 0.090 0.069l0.063 0.050c0.029 0.024 0.058 0.049 0.087 0.074 0.020 0.017 0.040 0.035 0.060 0.052 0.029 0.027 0.058 0.054 0.087 0.081 0.018 0.017 0.036 0.034 0.054 0.051 0.032 0.031 0.062 0.064 0.093 0.096 0.014 0.014 0.028 0.028 0.041 0.042 0.043 0.047 0.086 0.094 0.127 0.143 0.006 0.006 0.010 0.013 0.016 0.020 0.036 0.043 0.071 0.086 0.105 0.13 0.013 0.017 0.026 0.035 0.039 0.053 0.026 0.034 0.051 0.067 0.075 0.102 0.014 0.021 0.028 0.042 0.043 0.063 0.022 0.033 0.043 0.065 0.064 0.097 0.014 0.023 0.028 0.046 0.042 0.068 0.020 0.032 0.039 0.065 0.057 0.097 0.013 0.024 0.027 0.048 0.039 0.072 0.018 0.033 0.036 0.066 0.052 0.099 0.013 0.024 0.025 0.048 0.037 0.073 0.017 0.035 0.032 0.069 0.048 0.104 0.011 0.024 0.022 0.048 0.032 0.072 0.016 0.037 0.031 0.074 0.045 0.112 0.009 0.023 0.018 0.046 0.027 0.068 0.016 0.043 0.031 0.086 0.045 0.13 0.006 0.018 0.013 0.036 0.018 0.054 0.019 0.062 0.038 0.124 0.054 0.188 0.003 0.011 0.006 0.022 0.008 0.033 0.013 0.053 0.026 0.105 0.037 0.159 0.005 0.023 0.009 0.046 0.013 0.068 0.007 0.034 0.014 0.067 0.019 0.101h2.861c0.142 0 0.257-0.112 0.257-0.251v-2.844h-1.085v-1.358h1.085v-1.744c0-0.822-0.505-1.55-1.287-1.855l-2.604-1.016h-9.857v9.068zM28.998 16.19h8.938l-2.508-5.735c-0.28-0.64-0.921-1.053-1.634-1.053h-4.796v6.787zM11.382 30.091c1.581 0 2.866-1.254 2.866-2.796s-1.286-2.796-2.866-2.796c-0.050 0-0.099 0.001-0.148 0.004-1.317 0.065-2.402 1.002-2.661 2.23-0.009 0.046-0.018 0.092-0.026 0.138-0.014 0.092-0.024 0.186-0.029 0.281-0.003 0.048-0.004 0.096-0.004 0.144 0 1.542 1.286 2.796 2.867 2.796zM1.391 22.163h1.085v1.358h-1.085v3.023c0 0.040 0.033 0.072 0.074 0.072h5.716c0.006-0.034 0.013-0.067 0.019-0.1 0.004-0.023 0.008-0.047 0.013-0.070 0.011-0.052 0.023-0.104 0.037-0.155 0.003-0.012 0.006-0.024 0.009-0.036 0.017-0.063 0.035-0.125 0.055-0.187 0.006-0.019 0.013-0.038 0.019-0.056 0.014-0.043 0.029-0.086 0.045-0.128 0.009-0.024 0.018-0.047 0.027-0.070 0.014-0.037 0.029-0.074 0.045-0.11 0.011-0.025 0.022-0.049 0.033-0.074 0.016-0.034 0.031-0.069 0.048-0.103 0.012-0.025 0.024-0.049 0.037-0.074 0.017-0.033 0.034-0.066 0.052-0.099 0.013-0.024 0.027-0.048 0.040-0.072 0.019-0.033 0.038-0.065 0.057-0.097 0.014-0.023 0.028-0.046 0.042-0.069 0.021-0.033 0.042-0.065 0.063-0.096 0.014-0.022 0.028-0.043 0.043-0.064 0.024-0.034 0.049-0.067 0.073-0.1 0.013-0.018 0.027-0.037 0.041-0.055 0.033-0.043 0.067-0.085 0.102-0.127 0.006-0.008 0.012-0.015 0.018-0.022 0.042-0.049 0.084-0.097 0.127-0.143 0.014-0.015 0.028-0.029 0.042-0.043 0.031-0.032 0.061-0.064 0.092-0.094 0.018-0.017 0.036-0.034 0.055-0.052 0.028-0.027 0.057-0.054 0.086-0.080 0.020-0.017 0.040-0.035 0.060-0.053 0.028-0.024 0.057-0.049 0.087-0.073 0.021-0.017 0.042-0.035 0.064-0.052 0.029-0.023 0.059-0.046 0.089-0.068 0.022-0.016 0.044-0.033 0.066-0.048 0.031-0.022 0.062-0.043 0.093-0.065 0.023-0.015 0.045-0.030 0.067-0.045 0.033-0.022 0.066-0.042 0.1-0.062 0.022-0.014 0.044-0.027 0.066-0.040 0.037-0.022 0.074-0.042 0.112-0.063 0.020-0.011 0.038-0.022 0.058-0.032 0.053-0.028 0.106-0.055 0.161-0.080 0.004-0.002 0.009-0.005 0.014-0.007 0.059-0.028 0.119-0.054 0.179-0.079 0.019-0.008 0.040-0.015 0.059-0.023 0.042-0.016 0.083-0.033 0.125-0.048 0.024-0.009 0.048-0.016 0.073-0.025 0.038-0.013 0.076-0.026 0.115-0.038 0.026-0.008 0.053-0.016 0.079-0.023 0.038-0.011 0.076-0.022 0.114-0.032 0.027-0.007 0.055-0.014 0.082-0.021 0.038-0.009 0.076-0.017 0.114-0.026 0.028-0.006 0.056-0.012 0.084-0.017 0.039-0.007 0.078-0.014 0.117-0.020 0.028-0.005 0.055-0.009 0.084-0.013 0.041-0.006 0.082-0.011 0.124-0.016 0.026-0.003 0.053-0.006 0.080-0.009 0.046-0.004 0.092-0.008 0.138-0.010 0.023-0.002 0.045-0.004 0.068-0.004 0.070-0.004 0.139-0.005 0.209-0.005s0.139 0.002 0.209 0.005c0.023 0.001 0.045 0.003 0.068 0.004 0.046 0.003 0.092 0.006 0.138 0.010 0.027 0.002 0.054 0.006 0.080 0.009 0.042 0.005 0.083 0.010 0.124 0.016 0.028 0.004 0.056 0.008 0.083 0.013 0.040 0.006 0.078 0.013 0.118 0.020 0.028 0.005 0.056 0.011 0.084 0.017 0.038 0.008 0.076 0.016 0.114 0.026 0.028 0.007 0.055 0.014 0.082 0.021 0.038 0.010 0.076 0.021 0.114 0.032 0.026 0.008 0.053 0.015 0.079 0.023 0.039 0.012 0.077 0.025 0.115 0.038 0.024 0.009 0.049 0.016 0.073 0.025 0.042 0.016 0.084 0.032 0.125 0.048 0.019 0.008 0.040 0.015 0.059 0.023 0.060 0.025 0.12 0.052 0.179 0.079 0.005 0.002 0.009 0.004 0.014 0.007 0.055 0.026 0.108 0.052 0.161 0.080 0.020 0.010 0.039 0.021 0.058 0.032 0.037 0.021 0.075 0.041 0.112 0.063 0.022 0.013 0.044 0.027 0.066 0.040 0.033 0.020 0.067 0.041 0.1 0.062 0.022 0.015 0.045 0.030 0.067 0.045 0.031 0.021 0.062 0.042 0.093 0.065 0.022 0.016 0.045 0.032 0.066 0.048 0.030 0.023 0.060 0.046 0.089 0.068 0.022 0.017 0.043 0.034 0.064 0.052 0.030 0.024 0.058 0.048 0.087 0.073 0.020 0.017 0.041 0.035 0.060 0.052 0.029 0.027 0.058 0.054 0.087 0.081 0.018 0.017 0.036 0.034 0.054 0.051 0.031 0.031 0.062 0.063 0.093 0.095 0.013 0.014 0.028 0.028 0.041 0.043 0.043 0.047 0.086 0.094 0.127 0.143 0.006 0.007 0.011 0.014 0.017 0.021 0.035 0.042 0.070 0.085 0.104 0.129 0.014 0.017 0.027 0.035 0.040 0.053 0.025 0.034 0.050 0.067 0.074 0.102 0.014 0.021 0.028 0.042 0.043 0.064 0.022 0.032 0.043 0.064 0.063 0.097 0.014 0.023 0.028 0.046 0.042 0.068 0.020 0.032 0.039 0.065 0.057 0.097 0.013 0.024 0.027 0.048 0.040 0.072 0.018 0.033 0.036 0.066 0.053 0.099 0.012 0.024 0.024 0.048 0.036 0.073 0.017 0.035 0.032 0.069 0.048 0.104 0.011 0.024 0.022 0.048 0.032 0.072 0.016 0.037 0.031 0.074 0.046 0.112 0.009 0.023 0.018 0.046 0.027 0.068 0.016 0.043 0.031 0.087 0.045 0.131 0.006 0.018 0.013 0.035 0.018 0.053 0.020 0.062 0.038 0.125 0.055 0.188 0.002 0.010 0.004 0.020 0.007 0.030 0.014 0.054 0.027 0.107 0.038 0.162 0.005 0.022 0.009 0.044 0.013 0.066 0.007 0.034 0.014 0.068 0.020 0.103h12.024v-20.172c0-0.375 0.312-0.679 0.696-0.679h10.059c0.017 0 0.070 0 0.103-0.060s0.004-0.103-0.006-0.116l-2.177-3.186c-0.211-0.308-0.563-0.492-0.943-0.492h-18.168c-0.101 0-0.197 0.039-0.268 0.109l-1.151 1.123c-0.334 0.326-0.779 0.506-1.252 0.506h-11.981c-0.621 0-1.127 0.493-1.127 1.099v17.417z"></path>
        <path d="M19.422 7.501h4.401c0.889 0 1.612 0.705 1.612 1.573v14.527c0 0.375-0.312 0.679-0.696 0.679h-6.234c-0.384 0-0.696-0.304-0.696-0.679v-14.527c-0.001-0.868 0.722-1.573 1.612-1.573zM19.201 22.922h4.842v-7.982h-4.842v7.982zM19.201 13.583h4.842v-4.508c0-0.119-0.099-0.216-0.221-0.216h-4.401c-0.122 0-0.221 0.097-0.221 0.216l0.001 4.508z"></path>
    </symbol>

    <symbol id="van" viewBox="0 0 46 32" stroke="#101828">
        <path d="M2.608 1.8h12.409c0.105 0 0.203-0.040 0.278-0.112l1.192-1.163c0.346-0.338 0.807-0.524 1.297-0.524h18.817c0.876 0 1.69 0.425 2.176 1.136l2.255 3.3c0.32 0.468 0.349 1.067 0.077 1.564s-0.8 0.805-1.377 0.805h-9.698v0.956h4.967c1.317 0 2.501 0.763 3.018 1.945l2.908 6.65 2.548 0.994c1.36 0.531 2.24 1.797 2.24 3.227v6.158c0 0.918-0.766 1.666-1.708 1.666h-2.964c-0.345 2.039-2.164 3.599-4.35 3.599s-4.005-1.561-4.35-3.599h-16.203c-0.345 2.039-2.164 3.599-4.35 3.599s-4.005-1.561-4.35-3.599h-5.921c-0.837 0-1.518-0.664-1.518-1.481v-22.576c0-1.403 1.17-2.544 2.608-2.544zM36.692 30.594c1.637 0 2.969-1.299 2.969-2.896s-1.332-2.896-2.969-2.896c-1.637 0-2.969 1.299-2.969 2.896s1.332 2.896 2.969 2.896zM30.034 26.995h2.307c0.006-0.035 0.013-0.070 0.020-0.105 0.005-0.024 0.009-0.047 0.014-0.071 0.012-0.055 0.025-0.11 0.039-0.164 0.003-0.011 0.005-0.023 0.009-0.034 0.017-0.066 0.036-0.13 0.057-0.195 0.006-0.019 0.013-0.037 0.019-0.056 0.015-0.045 0.031-0.090 0.047-0.134 0.009-0.024 0.018-0.047 0.028-0.071 0.015-0.039 0.030-0.078 0.047-0.116 0.010-0.025 0.022-0.050 0.033-0.075 0.016-0.037 0.032-0.072 0.050-0.108 0.013-0.025 0.025-0.050 0.038-0.075 0.017-0.034 0.036-0.069 0.054-0.103 0.013-0.025 0.027-0.049 0.041-0.074 0.019-0.034 0.039-0.067 0.059-0.101 0.014-0.024 0.029-0.047 0.043-0.071 0.022-0.034 0.044-0.067 0.066-0.101 0.015-0.022 0.029-0.044 0.044-0.065 0.025-0.035 0.051-0.070 0.077-0.105 0.013-0.018 0.026-0.037 0.040-0.055 0.036-0.046 0.072-0.090 0.109-0.135 0.005-0.007 0.010-0.014 0.016-0.020 0.043-0.051 0.087-0.1 0.132-0.148 0.014-0.015 0.028-0.029 0.043-0.044 0.032-0.033 0.063-0.066 0.096-0.099 0.018-0.018 0.038-0.035 0.056-0.053 0.029-0.028 0.059-0.056 0.090-0.084 0.020-0.018 0.041-0.036 0.062-0.054 0.030-0.026 0.060-0.051 0.090-0.077l0.066-0.052c0.031-0.024 0.062-0.048 0.093-0.071 0.022-0.017 0.045-0.034 0.069-0.050 0.032-0.023 0.064-0.045 0.097-0.068 0.023-0.015 0.046-0.031 0.069-0.046 0.034-0.023 0.069-0.044 0.104-0.065 0.022-0.014 0.045-0.028 0.068-0.041 0.038-0.023 0.077-0.044 0.116-0.065 0.020-0.011 0.040-0.023 0.059-0.033 0.056-0.029 0.112-0.057 0.168-0.084 0.005-0.002 0.009-0.004 0.013-0.006 0.061-0.029 0.123-0.056 0.186-0.082 0.020-0.008 0.041-0.016 0.061-0.024 0.043-0.017 0.086-0.034 0.13-0.050 0.025-0.009 0.050-0.017 0.075-0.026 0.040-0.014 0.080-0.027 0.12-0.039 0.027-0.008 0.054-0.016 0.082-0.024 0.039-0.011 0.078-0.023 0.118-0.033 0.028-0.007 0.056-0.015 0.085-0.021 0.039-0.009 0.078-0.018 0.118-0.026 0.029-0.006 0.058-0.012 0.087-0.018 0.040-0.007 0.081-0.015 0.122-0.021 0.029-0.005 0.057-0.010 0.086-0.014 0.042-0.006 0.085-0.011 0.128-0.016 0.027-0.003 0.055-0.007 0.082-0.009 0.047-0.004 0.095-0.008 0.143-0.011 0.024-0.002 0.047-0.004 0.070-0.005 0.072-0.004 0.144-0.006 0.216-0.006s0.144 0.002 0.216 0.006c0.024 0.001 0.047 0.003 0.070 0.005 0.048 0.003 0.096 0.006 0.143 0.011 0.028 0.002 0.055 0.006 0.082 0.009 0.043 0.005 0.086 0.010 0.128 0.016 0.029 0.004 0.058 0.008 0.087 0.014 0.041 0.006 0.081 0.014 0.122 0.021 0.029 0.006 0.058 0.012 0.087 0.018 0.040 0.008 0.079 0.017 0.118 0.026 0.029 0.007 0.057 0.014 0.085 0.021 0.039 0.010 0.078 0.021 0.118 0.033 0.028 0.008 0.055 0.016 0.082 0.024 0.040 0.012 0.080 0.026 0.12 0.039 0.025 0.009 0.050 0.017 0.075 0.026 0.044 0.016 0.087 0.033 0.13 0.050 0.020 0.008 0.041 0.016 0.061 0.024 0.062 0.026 0.125 0.053 0.186 0.082 0.005 0.002 0.009 0.005 0.013 0.006 0.057 0.027 0.112 0.055 0.168 0.084 0.020 0.011 0.039 0.022 0.059 0.033 0.039 0.021 0.078 0.043 0.116 0.065 0.023 0.014 0.045 0.028 0.068 0.041 0.035 0.021 0.070 0.043 0.104 0.065 0.023 0.015 0.046 0.031 0.069 0.046 0.033 0.023 0.065 0.044 0.097 0.068 0.023 0.016 0.046 0.033 0.069 0.050 0.031 0.024 0.062 0.047 0.093 0.071l0.066 0.052c0.031 0.025 0.061 0.051 0.090 0.077 0.021 0.018 0.041 0.036 0.062 0.054 0.031 0.028 0.060 0.056 0.090 0.084 0.018 0.017 0.037 0.035 0.056 0.053 0.033 0.033 0.065 0.066 0.096 0.099 0.014 0.015 0.029 0.029 0.043 0.044 0.045 0.048 0.089 0.098 0.132 0.148 0.006 0.007 0.011 0.014 0.016 0.020 0.037 0.044 0.073 0.089 0.109 0.135 0.014 0.018 0.027 0.037 0.040 0.055 0.026 0.035 0.052 0.070 0.077 0.105 0.015 0.021 0.029 0.043 0.044 0.065 0.022 0.034 0.044 0.067 0.066 0.101 0.014 0.024 0.029 0.047 0.043 0.071 0.020 0.033 0.040 0.067 0.059 0.101 0.014 0.025 0.028 0.049 0.041 0.074 0.018 0.034 0.037 0.069 0.054 0.103 0.013 0.025 0.025 0.050 0.038 0.075 0.017 0.036 0.033 0.071 0.050 0.108 0.011 0.025 0.023 0.049 0.033 0.075 0.017 0.038 0.032 0.077 0.047 0.116 0.010 0.024 0.019 0.047 0.028 0.071 0.016 0.044 0.032 0.089 0.047 0.134 0.006 0.019 0.013 0.038 0.019 0.056 0.020 0.064 0.039 0.129 0.056 0.195 0.003 0.011 0.006 0.023 0.009 0.034 0.014 0.055 0.027 0.109 0.039 0.164 0.005 0.024 0.009 0.047 0.014 0.071 0.007 0.035 0.014 0.069 0.020 0.105h2.963c0.147 0 0.266-0.116 0.266-0.26v-2.946h-1.124v-1.406h1.124v-1.806c0-0.851-0.523-1.606-1.333-1.922l-2.697-1.052h-10.209v9.392zM30.034 16.197h9.257l-2.598-5.939c-0.29-0.662-0.954-1.090-1.692-1.090h-4.967v7.030zM11.789 30.594c1.637 0 2.969-1.299 2.969-2.896s-1.332-2.896-2.969-2.896c-0.051 0-0.102 0.001-0.153 0.004-1.364 0.067-2.488 1.038-2.756 2.309-0.010 0.047-0.019 0.095-0.027 0.143-0.015 0.096-0.025 0.193-0.030 0.291-0.003 0.049-0.004 0.099-0.004 0.149 0 1.597 1.332 2.896 2.969 2.896zM1.441 22.383h1.124v1.406h-1.124v3.131c0 0.041 0.035 0.075 0.077 0.075h5.92c0.006-0.035 0.013-0.069 0.020-0.104 0.005-0.024 0.009-0.048 0.014-0.072 0.012-0.054 0.024-0.107 0.038-0.16 0.003-0.012 0.006-0.025 0.009-0.038 0.017-0.065 0.036-0.129 0.056-0.193 0.006-0.020 0.013-0.039 0.020-0.058 0.015-0.044 0.030-0.089 0.046-0.132 0.009-0.025 0.019-0.048 0.028-0.072 0.015-0.038 0.031-0.077 0.046-0.114 0.011-0.026 0.022-0.051 0.034-0.076 0.016-0.036 0.032-0.071 0.050-0.106 0.012-0.026 0.025-0.051 0.038-0.076 0.017-0.034 0.035-0.068 0.054-0.102 0.014-0.025 0.028-0.049 0.042-0.074 0.020-0.034 0.039-0.067 0.059-0.1 0.014-0.024 0.029-0.048 0.044-0.071 0.021-0.034 0.043-0.067 0.066-0.1 0.014-0.023 0.029-0.045 0.044-0.066 0.025-0.035 0.051-0.070 0.076-0.104 0.014-0.019 0.028-0.038 0.042-0.057 0.035-0.044 0.070-0.088 0.106-0.132 0.006-0.008 0.012-0.016 0.018-0.023 0.043-0.051 0.087-0.1 0.132-0.148 0.014-0.015 0.029-0.030 0.043-0.045 0.032-0.033 0.063-0.066 0.096-0.098 0.018-0.018 0.037-0.035 0.056-0.053 0.029-0.028 0.059-0.056 0.089-0.083 0.020-0.018 0.041-0.036 0.062-0.055 0.029-0.025 0.059-0.051 0.090-0.075 0.022-0.018 0.044-0.036 0.066-0.053 0.030-0.024 0.061-0.047 0.092-0.071 0.022-0.017 0.046-0.034 0.069-0.050 0.032-0.023 0.064-0.045 0.096-0.067 0.024-0.016 0.047-0.031 0.070-0.047 0.034-0.023 0.069-0.044 0.103-0.065 0.023-0.014 0.046-0.028 0.069-0.042 0.038-0.023 0.077-0.044 0.116-0.065 0.020-0.011 0.040-0.023 0.061-0.033 0.055-0.029 0.11-0.057 0.167-0.083 0.005-0.002 0.009-0.005 0.014-0.007 0.061-0.029 0.123-0.056 0.186-0.082 0.020-0.008 0.041-0.016 0.061-0.024 0.043-0.017 0.086-0.034 0.13-0.050 0.025-0.009 0.050-0.017 0.076-0.026 0.039-0.014 0.079-0.027 0.119-0.039 0.027-0.008 0.055-0.016 0.082-0.024 0.039-0.011 0.078-0.023 0.118-0.033 0.028-0.007 0.056-0.015 0.085-0.021 0.039-0.009 0.078-0.018 0.118-0.026 0.029-0.006 0.058-0.012 0.087-0.018 0.040-0.007 0.081-0.015 0.122-0.021 0.029-0.005 0.057-0.010 0.086-0.014 0.042-0.006 0.085-0.011 0.128-0.016 0.027-0.003 0.055-0.007 0.082-0.009 0.047-0.004 0.095-0.008 0.143-0.011 0.024-0.002 0.047-0.004 0.070-0.005 0.072-0.004 0.144-0.006 0.216-0.006s0.144 0.002 0.216 0.006c0.024 0.001 0.047 0.003 0.070 0.005 0.048 0.003 0.096 0.006 0.143 0.011 0.028 0.002 0.055 0.006 0.082 0.009 0.043 0.005 0.086 0.010 0.128 0.016 0.029 0.004 0.058 0.008 0.086 0.014 0.041 0.006 0.081 0.014 0.122 0.021 0.029 0.006 0.058 0.012 0.087 0.018 0.040 0.008 0.079 0.017 0.118 0.026 0.029 0.007 0.057 0.014 0.085 0.021 0.039 0.010 0.078 0.021 0.118 0.033 0.027 0.008 0.055 0.016 0.082 0.024 0.040 0.012 0.080 0.026 0.119 0.039 0.025 0.009 0.051 0.017 0.076 0.026 0.044 0.016 0.086 0.033 0.13 0.050 0.020 0.008 0.041 0.016 0.061 0.024 0.062 0.026 0.124 0.053 0.186 0.082 0.005 0.002 0.010 0.005 0.014 0.007 0.056 0.026 0.112 0.054 0.167 0.083 0.021 0.011 0.040 0.022 0.060 0.033 0.039 0.021 0.078 0.043 0.116 0.065 0.023 0.014 0.046 0.028 0.069 0.042 0.035 0.021 0.069 0.042 0.103 0.065 0.023 0.015 0.046 0.031 0.070 0.047 0.032 0.022 0.065 0.044 0.096 0.067 0.023 0.016 0.046 0.033 0.069 0.050 0.031 0.024 0.062 0.047 0.092 0.071 0.023 0.017 0.044 0.035 0.066 0.053 0.031 0.025 0.061 0.050 0.090 0.076 0.021 0.018 0.042 0.036 0.062 0.054 0.030 0.028 0.060 0.056 0.090 0.084 0.018 0.017 0.037 0.035 0.056 0.053 0.032 0.032 0.065 0.065 0.096 0.098 0.014 0.015 0.029 0.029 0.043 0.044 0.045 0.048 0.089 0.098 0.132 0.148 0.006 0.007 0.012 0.015 0.017 0.021 0.036 0.044 0.073 0.088 0.107 0.134 0.014 0.018 0.028 0.037 0.042 0.055 0.026 0.035 0.052 0.070 0.077 0.105 0.015 0.021 0.029 0.044 0.044 0.066 0.023 0.033 0.044 0.066 0.066 0.1 0.015 0.024 0.029 0.047 0.044 0.071 0.020 0.033 0.040 0.067 0.059 0.101 0.014 0.025 0.028 0.049 0.041 0.074 0.019 0.034 0.037 0.069 0.055 0.103 0.013 0.025 0.025 0.050 0.037 0.075 0.017 0.036 0.034 0.072 0.050 0.108 0.012 0.025 0.023 0.049 0.033 0.075 0.017 0.038 0.032 0.077 0.047 0.116 0.009 0.024 0.018 0.047 0.028 0.071 0.017 0.045 0.032 0.090 0.047 0.135 0.006 0.019 0.013 0.037 0.019 0.055 0.020 0.064 0.039 0.129 0.057 0.195 0.002 0.010 0.005 0.021 0.007 0.031 0.014 0.056 0.028 0.111 0.040 0.168 0.005 0.023 0.009 0.046 0.013 0.069 0.007 0.035 0.014 0.070 0.021 0.106h12.453v-20.893c0-0.388 0.323-0.703 0.721-0.703h10.419c0.018 0 0.073 0 0.107-0.062s0.004-0.106-0.006-0.12l-2.255-3.3c-0.218-0.319-0.583-0.51-0.977-0.51h-18.817c-0.105 0-0.204 0.040-0.278 0.112l-1.192 1.163c-0.346 0.338-0.807 0.524-1.297 0.524h-12.409c-0.643 0-1.167 0.511-1.167 1.138v18.039z"></path>
        <path d="M5.536 7.198h8.814c1.019 0 1.848 0.809 1.848 1.802v4.1c0 0.994-0.829 1.802-1.848 1.802h-8.815c-1.019 0-1.848-0.809-1.848-1.802v-4.1c0.001-0.994 0.83-1.802 1.848-1.802zM5.129 13.1c0 0.218 0.182 0.396 0.406 0.396h8.814c0.224 0 0.406-0.178 0.406-0.396v-4.1c0-0.218-0.182-0.396-0.406-0.396h-8.815c-0.224 0-0.406 0.178-0.406 0.396l0.001 4.1z"></path>
    </symbol>

</defs>
</svg>
